<?xml version="1.0" encoding="UTF-8" standalone="no"?>
<!-- Created with Inkscape (http://www.inkscape.org/) -->

<svg
   xmlns:dc="http://purl.org/dc/elements/1.1/"
   xmlns:cc="http://creativecommons.org/ns#"
   xmlns:rdf="http://www.w3.org/1999/02/22-rdf-syntax-ns#"
   xmlns:svg="http://www.w3.org/2000/svg"
   xmlns="http://www.w3.org/2000/svg"
   xmlns:sodipodi="http://sodipodi.sourceforge.net/DTD/sodipodi-0.dtd"
   xmlns:inkscape="http://www.inkscape.org/namespaces/inkscape"
   width="600mm"
   height="200mm"
   viewBox="0 0 2125.9843 708.66141"
   id="svg7138"
   version="1.1"
   inkscape:version="0.91 r13725"
   sodipodi:docname="kcna.svg">
  <defs
     id="defs7140" />
  <sodipodi:namedview
     id="base"
     pagecolor="#ffffff"
     bordercolor="#666666"
     borderopacity="1.0"
     inkscape:pageopacity="0.0"
     inkscape:pageshadow="2"
     inkscape:zoom="0.24748737"
     inkscape:cx="1143.722"
     inkscape:cy="468.80294"
     inkscape:document-units="px"
     inkscape:current-layer="layer2"
     showgrid="false"
     inkscape:window-width="1366"
     inkscape:window-height="715"
     inkscape:window-x="-8"
     inkscape:window-y="-8"
     inkscape:window-maximized="1" />
  <metadata
     id="metadata7143">
    <rdf:RDF>
      <cc:Work
         rdf:about="">
        <dc:format>image/svg+xml</dc:format>
        <dc:type
           rdf:resource="http://purl.org/dc/dcmitype/StillImage" />
        <dc:title />
      </cc:Work>
    </rdf:RDF>
  </metadata>
  <g
     inkscape:label="1. réteg"
     inkscape:groupmode="layer"
     id="layer1"
     transform="translate(0,-343.70083)"
     style="display:inline">
    <rect
       style="opacity:1;fill:#af0102;fill-opacity:1;stroke:none;stroke-width:1.79999995;stroke-linecap:round;stroke-linejoin:round;stroke-miterlimit:4;stroke-dasharray:none;stroke-dashoffset:0;stroke-opacity:1"
       id="rect7697"
       width="2125.9846"
       height="708.66156"
       x="-5.686751e-005"
       y="343.70078" />
    <g
       transform="matrix(1.3427217,0,0,1.3535161,-99.74525,250.82309)"
       style="font-style:normal;font-weight:normal;font-size:40px;line-height:125%;font-family:sans-serif;letter-spacing:0px;word-spacing:0px;fill:#000000;fill-opacity:1;stroke:#ffffff;stroke-width:2.22534108;stroke-linecap:butt;stroke-linejoin:miter;stroke-miterlimit:4;stroke-dasharray:none;stroke-opacity:1"
       id="flowRoot7699">
      <path
         d="m 651.2226,330.05781 q 3.24,3.78 3.24,7.2 0,5.94 -7.2,5.94 -3.42,0 -7.38,-1.98 -9,-4.86 -27.54,-18.72 -25.02001,-18.90001 -27.72001,-20.88001 -25.92,33.84001 -57.24001,46.08001 -1.26,0.54 -4.5,1.44 -2.34,0.54 -4.68,0.54 -3.24,0 -3.24,-1.26 0,-0.9 2.34,-2.7 3.78,-2.34 10.98,-7.2 39.06001,-26.64 52.38001,-65.34001 l -50.94001,0 -8.1,0.9 -4.14,-9.54 q 12.06,1.98 111.78002,1.98 7.74,-9.18 9.54,-9.18 0.72,0 4.14,1.98 3.42,1.8 5.76,3.78 5.76,4.86 5.76,8.1 0,1.98 -3.42,1.98 l -53.1,0 q -1.98001,9.72 -9.18001,22.14 16.92001,8.64 33.84001,17.46001 24.66,12.78 28.62,17.28 z m 18.90001,69.12001 -150.48003,0 -12.06,2.34 -3.96,-10.98 q 13.14,1.98 76.32001,1.98 l 0,-55.26001 q 2.16,1.8 12.78,4.68 9.36001,2.7 9.36001,4.32 0,1.98 -3.78,3.42 -3.60001,1.26 -3.60001,1.98 l 0,40.86001 50.94001,0 q 2.7,-3.24 5.4,-6.48 2.88,-3.24 5.58001,-3.24 2.88,0 7.02,3.24 9.9,7.56 9.9,11.34 0,1.8 -3.42,1.8 z"
         style="font-style:normal;font-variant:normal;font-weight:normal;font-stretch:normal;font-size:180.00003052px;font-family:'KP KwangMyeong';-inkscape-font-specification:'KP KwangMyeong';fill:#ffffff;stroke:#ffffff;stroke-width:2.22534108;stroke-miterlimit:4;stroke-dasharray:none;stroke-opacity:1"
         id="path3348"
         inkscape:connector-curvature="0" />
      <path
         d="m 842.02264,263.2778 q 0,2.88 -4.32,4.32 -4.32,1.44 -4.32,2.88 l 0,86.04001 q 0,4.14 -5.76001,5.58 -4.14,1.08 -9,0.72 l 0,-52.92 -43.74,0 -6.84001,1.08 -3.96,-9.00001 10.08001,1.98 44.46,0 0,-49.32 q 4.5,1.62 13.86,4.14 9.54001,1.62 9.54001,4.5 z m -62.28001,78.48001 q 0,5.76 -4.5,5.76 -4.14001,0 -10.98001,-6.12 -6.84,-6.12 -15.84,-16.74 -10.08,-11.7 -15.48,-16.92 -15.84,29.88 -36.36001,41.94 -5.94,3.42 -8.46,3.42 -1.08,0 -1.08,-0.72 0,-1.62 5.22,-6.66 12.96,-12.24 23.58001,-34.38 10.08,-20.88001 11.52,-53.46001 2.88,2.16 13.5,5.22 9,2.52 9,4.5 0,1.98 -7.74,5.04 -0.9,8.46 -6.3,28.8 10.8,7.38001 21.78,14.94001 15.84,11.16 18.72001,15.66 3.42,5.22 3.42,9.72 z m 52.74,61.92001 -105.66001,0 q -17.46001,0 -17.46001,-14.04 l 0,-36.54001 q 1.08,0.54 13.14001,3.96 10.08,2.88 10.08,5.22 0,1.26 -4.32,2.52 -4.14,1.08 -4.14,2.16001 l 0,21.96 q 0,5.04 0.36,6.12 0.9,2.52 5.04,2.52 l 85.14001,0 q 2.16,-3.24 4.14,-6.3 1.98,-3.24 4.5,-3.24 2.16,0 5.58,2.34 10.26001,7.02 10.26001,10.62 0,2.7 -6.66001,2.7 z"
         style="font-style:normal;font-variant:normal;font-weight:normal;font-stretch:normal;font-size:180.00003052px;font-family:'KP KwangMyeong';-inkscape-font-specification:'KP KwangMyeong';fill:#ffffff;stroke:#ffffff;stroke-width:2.22534108;stroke-miterlimit:4;stroke-dasharray:none;stroke-opacity:1"
         id="path3350"
         inkscape:connector-curvature="0" />
      <path
         d="m 1011.5827,271.1978 -53.46004,0 q -2.7,6.48 -7.74001,11.7 8.28001,2.88 24.84001,7.2 16.56,2.88 28.98004,7.74 9.18,3.6 9.18,9.72001 0,5.4 -7.38,5.4 -4.14,0 -9.36004,-1.98 -9,-4.14001 -26.28,-11.52001 -8.46,-4.14 -25.38001,-11.16 -10.98,7.74 -26.64,14.58 -16.74,7.38001 -28.62001,9.36001 -11.16,1.8 -14.22,0.72 -1.26,-0.36 -0.9,-1.8 0.36,-1.08 1.26,-1.8 1.08,-0.9 3.42,-2.34001 0.72,-0.18 2.52,-0.72 38.88001,-12.06 57.78001,-35.1 l -49.14001,0 -9.72,1.26 -3.6,-9.18 q 13.14,1.98 113.76002,1.98 2.34,-2.88 4.5,-5.94 2.16,-2.52 3.96,-2.52 2.16004,0 5.40004,2.34 10.44,7.2 10.44,10.44 0,1.62 -3.6,1.62 z m 17.46,64.08001 -75.06004,0 0,20.16 q 21.6,0.9 37.08,6.12 21.24004,7.20001 21.24004,20.16001 0,14.94 -26.28004,21.24 -16.38,3.96 -39.42001,3.96 -19.44,0 -39.24,-5.22 -27.18001,-7.02 -27.18001,-19.98 0,-13.5 22.14001,-20.52001 16.02,-5.22 37.62,-5.76 l 0,-20.16 -66.78001,0 -9.9,1.26 -1.62,-9.9 11.52,2.34 132.30006,0 q 4.32,-4.32 5.58,-5.58 4.5,-4.14 6.3,-4.5 3.96,1.98 7.56,4.5 8.64,6.3 8.64,9.72 0,2.16 -4.5,2.16 z m -33.84004,46.08001 q 0,-10.26 -17.82,-15.48001 -13.32,-3.78 -31.14001,-3.78 -18.18,0 -31.32,3.78 -17.64,5.22001 -17.64,15.48001 0,19.08 48.96,19.08 48.96001,0 48.96001,-19.08 z"
         style="font-style:normal;font-variant:normal;font-weight:normal;font-stretch:normal;font-size:180.00003052px;font-family:'KP KwangMyeong';-inkscape-font-specification:'KP KwangMyeong';fill:#ffffff;stroke:#ffffff;stroke-width:2.22534108;stroke-miterlimit:4;stroke-dasharray:none;stroke-opacity:1"
         id="path3352"
         inkscape:connector-curvature="0" />
      <path
         d="m 1214.0743,308.09781 q 0,2.34 -4.5,2.34 l -24.84,0 0,27.18 q 0,4.14 -5.76,5.58 -4.14,1.08 -9,0.72 l 0,-89.28001 q 5.04,2.7 13.86,4.14 9.54,1.62 9.54,4.5 0,2.88 -4.32,4.32 -4.32,1.44 -4.32,2.88 l 0,33.84 4.5,0 q 7.92,-9.36 11.34,-9.36 1.44,0 3.42,1.62 10.08,7.92 10.08,11.52001 z m -27.36,71.28001 q 0,27.54 -62.1,27.54 -20.16,0 -37.44,-4.86 -25.38,-7.38 -25.38,-22.68 0,-16.38001 24.66,-23.40001 16.02,-4.5 37.8,-4.5 21.42,0 37.8,4.86 24.66,7.2 24.66,23.04001 z m -17.1,-0.54 q 0,-10.44 -15.84,-16.38001 -12.78,-4.68 -29.16,-4.68 -16.74,0 -29.7,4.68 -16.02,5.94001 -16.02,16.38001 0,11.34 16.2,17.1 12.42,4.5 29.16,4.5 18,0 30.24,-4.5 15.12,-5.76 15.12,-17.1 z m -29.7,-79.74002 q 0,18.00001 -13.32,27.90001 -12.06,9 -30.42,9 -18.54,0 -30.06,-8.82 -13.32,-10.08 -13.32,-29.16001 0,-18.72 12.06,-28.8 11.34,-9.36 31.14,-9.36 19.98,0 31.86,10.62 12.06,10.62 12.06,28.62 z m -16.92,-1.08 q 0,-15.3 -5.4,-22.68 -6.48,-8.82 -21.42,-8.82 -27,0 -27,29.88 0,13.50001 5.94,22.50001 7.2,10.98 20.88,10.98 13.5,0 20.7,-9.9 6.3,-8.64 6.3,-21.96001 z"
         style="font-style:normal;font-variant:normal;font-weight:normal;font-stretch:normal;font-size:180.00003052px;font-family:'KP KwangMyeong';-inkscape-font-specification:'KP KwangMyeong';fill:#ffffff;stroke:#ffffff;stroke-width:2.22534108;stroke-miterlimit:4;stroke-dasharray:none;stroke-opacity:1"
         id="path3354"
         inkscape:connector-curvature="0" />
      <path
         d="m 1372.6543,383.87782 q 0,15.48 -26.46,20.52 -12.78,2.52 -39.6,2.52 -66.42,0 -66.42,-22.32 0,-14.04 26.46,-20.52001 17.46,-4.14 39.6,-4.14 66.42,0 66.42,23.94001 z m -17.1,-0.54 q 0,-16.92001 -48.96,-16.92001 -18.54,0 -31.5,3.24001 -17.82,4.32 -17.82,13.68 0,18.18 48.96,18.18 49.32,0 49.32,-18.18 z m 13.5,-113.58002 -120.42,0 -9,1.44 -3.42,-10.44 12.6,2.7 99,0 q 8.82,-8.64 10.98,-8.1 1.08,0.36 4.5,2.52 9.72,6.3 9.72,10.08 0,1.8 -3.96,1.8 z m 19.26,77.40001 -154.44,0 q -4.5,1.26 -9.72,2.7 l -4.14,-12.24 13.5,2.88 63.36,0 0,-20.16 -44.1,0 q -8.82,0 -11.16,-1.8 -3.06,-2.34 -3.06,-10.8 l 0,-27.36001 q 4.68,1.08 9.36,2.16 7.02,1.98 7.56,4.32 l 91.62,0 q 7.92,-9 10.8,-9 1.8,0 4.32,1.8 2.7,1.62 6.12,5.04 4.86,4.5 4.86,6.66 0,1.98 -3.6,1.98 l -115.56,0 0,14.04 q 0,6.48001 6.3,6.48001 l 88.02,0 q 1.8,-1.98 5.58,-6.12 3.42,-3.60001 5.04,-3.60001 1.44,0 4.68,2.16 10.98,7.38001 10.98,12.06001 0,1.98 -3.96,1.98 l -58.68,0 0,20.16 54.36,0 q 1.8,-1.98 5.58,-5.76 3.78,-3.78 5.76,-3.78 1.8,0 4.14,1.62 12.06,8.28 12.06,12.06 0,2.52 -5.58,2.52 z"
         style="font-style:normal;font-variant:normal;font-weight:normal;font-stretch:normal;font-size:180.00003052px;font-family:'KP KwangMyeong';-inkscape-font-specification:'KP KwangMyeong';fill:#ffffff;stroke:#ffffff;stroke-width:2.22534108;stroke-miterlimit:4;stroke-dasharray:none;stroke-opacity:1"
         id="path3356"
         inkscape:connector-curvature="0" />
      <path
         d="m 1562.3743,263.2778 q 0,2.88 -4.32,4.32 -4.32,1.44 -4.32,2.88 l 0,86.04001 q 0,4.14 -5.76,5.58 -4.14,1.08 -9,0.72 l 0,-108.18001 q 4.5,1.62 13.86,4.14 9.54,1.62 9.54,4.5 z m -60.48,78.48001 q 0,5.76 -4.5,5.76 -4.14,0 -10.98,-6.12 -6.84,-6.12 -15.84,-16.74 -10.08,-11.7 -15.48,-16.92 -15.84,29.88 -36.36,41.94 -5.94,3.42 -8.46,3.42 -1.08,0 -1.08,-0.72 0,-1.62 5.22,-6.66 12.96,-12.24 23.58,-34.38 10.08,-20.88001 11.52,-53.46001 2.88,2.16 13.5,5.22 9,2.52 9,4.5 0,1.98 -7.74,5.04 -0.9,8.46 -6.3,28.8 10.8,7.38001 21.78,14.94001 15.84,11.16 18.72,15.66 3.42,5.22 3.42,9.72 z m 50.94,61.92001 -107.46,0 q -17.46,0 -17.46,-14.04 l 0,-36.54001 q 1.08,0.54 13.14,3.96 10.08,2.88 10.08,5.22 0,1.26 -4.32,2.52 -4.14,1.08 -4.14,2.16001 l 0,21.96 q 0,5.04 0.36,6.12 0.9,2.52 5.04,2.52 l 86.94,0 q 2.16,-3.24 4.14,-6.3 1.98,-3.24 4.5,-3.24 2.16,0 5.58,2.34 10.26,7.02 10.26,10.62 0,2.7 -6.66,2.7 z"
         style="font-style:normal;font-variant:normal;font-weight:normal;font-stretch:normal;font-size:180.00003052px;font-family:'KP KwangMyeong';-inkscape-font-specification:'KP KwangMyeong';fill:#ffffff;stroke:#ffffff;stroke-width:2.22534108;stroke-miterlimit:4;stroke-dasharray:none;stroke-opacity:1"
         id="path3358"
         inkscape:connector-curvature="0" />
    </g>
    <g
       transform="matrix(1.023074,0,0,0.89648032,29.313393,371.31323)"
       style="font-style:normal;font-weight:normal;font-size:40px;line-height:125%;font-family:sans-serif;letter-spacing:0px;word-spacing:0px;fill:#000000;fill-opacity:1;stroke:#000000;stroke-width:2.08836389;stroke-linecap:butt;stroke-linejoin:miter;stroke-miterlimit:4;stroke-dasharray:none;stroke-opacity:1"
       id="flowRoot3360">
      <path
         d="m 933.34516,584.43641 0.72,-3.69 3.51,0 q 2.88,0 3.33,-2.16 0.36,-1.89 -1.26,-5.04 l -12.42,-22.86001 -11.34,9.27001 -2.97,15.03 q -0.63,3.33 -0.09,4.59 0.63,1.17 2.97,1.17 l 4.14,0 -0.72,3.69 -22.68,0 0.72,-3.69 4.14,0 q 2.16,0 3.33,-1.8 0.72,-0.99 1.62,-3.78 l 9.09,-45.45001 q 0.54,-2.97 -0.09,-4.14 -0.63,-1.26 -2.88,-1.71 l -4.05,0 0.72,-3.6 22.95,0 -0.72,3.6 -4.14,0 q -1.62,0 -3.15,1.44 -1.53,1.44 -2.07,4.05 l -5.04,25.2 26.19,-22.32 q 5.22001,-4.41 5.40001,-6.3 0,-0.72 -0.99,-1.44 l -0.45,-0.27 q -1.17,-0.18 -4.32001,-0.36 l 0.72,-3.6 23.40001,0 -0.72,3.6 q -1.26,0 -3.78,0.36 -6.03,1.44 -12.6,7.11 l -17.37001,14.85 14.31001,26.37001 q 2.88,5.22 4.86,6.75 2.07,1.44 6.39,1.44 l -0.72,3.69 -23.94001,0 z"
         style="font-style:italic;font-variant:normal;font-weight:normal;font-stretch:normal;font-size:90.00001526px;font-family:'KP KwangMyeong';-inkscape-font-specification:'KP KwangMyeong Italic';stroke:#000000;stroke-width:2.08836389;stroke-miterlimit:4;stroke-dasharray:none;stroke-opacity:1"
         id="path4279"
         inkscape:connector-curvature="0" />
      <path
         d="m 981.28423,585.33641 q -8.64,0 -12.78,-6.3 -4.41,-6.48 -2.16,-17.37 1.89,-9.45001 9,-16.56001 7.11,-7.2 15.66,-7.2 9.17997,0 13.31997,6.21 4.32,6.57 1.89,18.54001 -1.89,9.45 -9.35997,16.11 -7.47,6.57 -15.57,6.57 z m 9,-43.74001 q -6.66,0 -11.25,5.22 -4.59,5.13 -6.48,14.76001 -2.07,10.17 0.81,15.48 2.52,4.95 8.55,4.95 6.39,0 11.34,-5.31 4.95,-5.4 6.83997,-14.76 1.98,-9.81001 -0.71997,-15.03001 -2.7,-5.31 -9.09,-5.31 z"
         style="font-style:italic;font-variant:normal;font-weight:normal;font-stretch:normal;font-size:90.00001526px;font-family:'KP KwangMyeong';-inkscape-font-specification:'KP KwangMyeong Italic';stroke:#000000;stroke-width:2.08836389;stroke-miterlimit:4;stroke-dasharray:none;stroke-opacity:1"
         id="path4281"
         inkscape:connector-curvature="0" />
      <path
         d="m 1036.7242,546.5464 q -0.72,0 -2.43,-0.9 -1.71,-0.99 -2.61,-0.99 -0.99,0 -3.24,2.34 -2.16,2.25 -3.6,5.22 -2.43,4.77001 -3.42,9.63001 l -2.79,14.04 q -0.72,3.42 0.99,4.32 1.08,0.54 4.86,0.54 l -0.72,3.69 -19.17,0 0.72,-3.69 q 4.23,0 5.49,-0.9 1.26,-0.99 1.89,-3.96 l 5.67,-28.26001 q 0.81,-3.96 -5.76,-3.15 l 0.63,-3.42 q 3.96,0 7.2,-1.53 1.17,-0.63 6.3,-4.14 l -2.43,11.97 q 3.78,-5.67 7.2,-7.83 2.88,-1.89 6.75,-1.89 2.34,0 3.51,1.35 1.26,1.35 0.81,3.51 -0.81,4.05 -5.85,4.05 z"
         style="font-style:italic;font-variant:normal;font-weight:normal;font-stretch:normal;font-size:90.00001526px;font-family:'KP KwangMyeong';-inkscape-font-specification:'KP KwangMyeong Italic';stroke:#000000;stroke-width:2.08836389;stroke-miterlimit:4;stroke-dasharray:none;stroke-opacity:1"
         id="path4283"
         inkscape:connector-curvature="0" />
      <path
         d="m 1054.1828,586.23641 q -8.46,0 -12.06,-7.11 -3.24,-6.39 -1.53,-15.03 2.34,-11.79001 9.27,-19.17001 6.57,-7.02 14.22,-7.02 14.94,0 12.51,22.05001 l -28.98,0 q -0.36,1.62 -0.72,3.33 -1.53,7.74 0.45,12.6 2.43,5.94 9.81,5.94 6.39,0 15.03,-8.55 l 2.07,1.98 q -7.02,6.75 -11.34,9 -3.78,1.98 -8.73,1.98 z m 9.45,-44.64001 q -8.73,0 -14.49,14.67001 l 21.6,0 q 1.62,-14.67001 -7.11,-14.67001 z"
         style="font-style:italic;font-variant:normal;font-weight:normal;font-stretch:normal;font-size:90.00001526px;font-family:'KP KwangMyeong';-inkscape-font-specification:'KP KwangMyeong Italic';stroke:#000000;stroke-width:2.08836389;stroke-miterlimit:4;stroke-dasharray:none;stroke-opacity:1"
         id="path4285"
         inkscape:connector-curvature="0" />
      <path
         d="m 1105.2452,585.96641 q -4.32,0 -3.87,-5.76 -7.11,5.76 -13.77,5.76 -5.13,0 -7.92,-3.15 -2.79,-3.24 -1.89,-7.74 1.35,-6.66 6.93,-10.98 6.84,-5.13 21.42,-8.19 l 1.35,-6.66001 q 0.81,-3.78 -0.81,-5.67 -1.53,-1.89 -4.32,-1.89 -3.15,0 -5.58,2.07 -1.26,1.08 -2.61,3.96 -1.71,3.33 -2.52,4.32 -1.8,2.07 -4.32,2.07 -3.33,0 -2.43,-4.14 0.9,-4.77 6.48,-8.37 5.67,-3.69 12.78,-3.69 6.03,0 8.19,2.97 2.25,2.97 0.99,9.54 l -5.22,26.10001 q -0.81,3.69 0.36,3.69 1.17,0 3.96,-2.7 l 1.17,2.52 q -2.61,3.24 -3.6,4.14 -2.25,1.8 -4.77,1.8 z m 0.18,-26.46 q -7.47,1.26 -13.41,4.86 -6.66,4.05 -7.92,9.27 -0.72,3.06 0.72,5.4 1.53,2.25 4.59,2.61 5.85,0 12.87,-6.03 l 3.15,-16.11 z"
         style="font-style:italic;font-variant:normal;font-weight:normal;font-stretch:normal;font-size:90.00001526px;font-family:'KP KwangMyeong';-inkscape-font-specification:'KP KwangMyeong Italic';stroke:#000000;stroke-width:2.08836389;stroke-miterlimit:4;stroke-dasharray:none;stroke-opacity:1"
         id="path4287"
         inkscape:connector-curvature="0" />
      <path
         d="m 1140.2875,584.43641 0.63,-3.06 q 4.5,-0.18 5.76,-1.17 1.08,-0.72 1.71,-3.69 l 4.5,-22.50001 q 0.99,-5.13 -0.72,-8.01 -1.62,-2.97 -5.76,-2.97 -5.31,0 -12.51,7.02 l -5.13,25.83001 q -0.72,3.78 0.09,4.41 0.63,0.45 5.58,0.45 l -0.72,3.69 -18.99,0 0.72,-3.69 q 4.5,0 5.58,-0.63 1.08,-0.72 1.8,-4.23 l 5.67,-28.26001 q 0.45,-2.34 -1.62,-2.97 -0.81,-0.18 -4.05,-0.18 l 0.63,-3.33 q 6.3,0 13.32,-5.49 l -1.89,9.45 q 8.19,-7.11 14.67,-7.11 5.4,0 8.1,3.96 2.79,3.96 1.53,10.26 l -4.86,23.94001 q -0.54,2.88 0.27,3.96 0.81,1.08 4.68,1.26 l -0.63,3.06 -18.36,0 z"
         style="font-style:italic;font-variant:normal;font-weight:normal;font-stretch:normal;font-size:90.00001526px;font-family:'KP KwangMyeong';-inkscape-font-specification:'KP KwangMyeong Italic';stroke:#000000;stroke-width:2.08836389;stroke-miterlimit:4;stroke-dasharray:none;stroke-opacity:1"
         id="path4289"
         inkscape:connector-curvature="0" />
      <path
         d="m 1221.9808,585.96641 q -10.08,0 -16.65,-8.37 -7.38,-9.36 -4.5,-23.76001 3.24,-16.11 14.04,-25.92 9.45,-8.55 19.71,-8.55 2.9701,0 9.6301,1.71 0.45,0.18 1.8,0.36 l 0.45,0.09 q 1.62,0.27 4.86,-2.43 l 2.16,18.27 -3.6,1.8 q -0.9,-5.85 -5.49,-10.89 -4.95,-5.4 -10.3501,-5.4 -8.1,0 -15.66,8.19 -8.1,8.64 -10.71,21.87 -2.7,13.32001 1.98,21.15001 4.5,7.29 13.95,7.29 12.06,0 23.1301,-15.57 l 2.43,2.25 q -13.23,17.91 -27.1801,17.91 z"
         style="font-style:italic;font-variant:normal;font-weight:normal;font-stretch:normal;font-size:90.00001526px;font-family:'KP KwangMyeong';-inkscape-font-specification:'KP KwangMyeong Italic';stroke:#000000;stroke-width:2.08836389;stroke-miterlimit:4;stroke-dasharray:none;stroke-opacity:1"
         id="path4291"
         inkscape:connector-curvature="0" />
      <path
         d="m 1270.218,586.23641 q -8.46,0 -12.06,-7.11 -3.24,-6.39 -1.53,-15.03 2.34,-11.79001 9.27,-19.17001 6.57,-7.02 14.22,-7.02 14.94,0 12.51,22.05001 l -28.98,0 q -0.36,1.62 -0.72,3.33 -1.53,7.74 0.45,12.6 2.43,5.94 9.81,5.94 6.39,0 15.03,-8.55 l 2.07,1.98 q -7.02,6.75 -11.34,9 -3.78,1.98 -8.73,1.98 z m 9.45,-44.64001 q -8.73,0 -14.49,14.67001 l 21.6,0 q 1.62,-14.67001 -7.11,-14.67001 z"
         style="font-style:italic;font-variant:normal;font-weight:normal;font-stretch:normal;font-size:90.00001526px;font-family:'KP KwangMyeong';-inkscape-font-specification:'KP KwangMyeong Italic';stroke:#000000;stroke-width:2.08836389;stroke-miterlimit:4;stroke-dasharray:none;stroke-opacity:1"
         id="path4293"
         inkscape:connector-curvature="0" />
      <path
         d="m 1316.4204,584.43641 0.63,-3.06 q 4.5,-0.18 5.76,-1.17 1.08,-0.72 1.71,-3.69 l 4.5,-22.50001 q 0.99,-5.13 -0.72,-8.01 -1.62,-2.97 -5.76,-2.97 -5.31,0 -12.51,7.02 l -5.13,25.83001 q -0.72,3.78 0.09,4.41 0.63,0.45 5.58,0.45 l -0.72,3.69 -18.99,0 0.72,-3.69 q 4.5,0 5.58,-0.63 1.08,-0.72 1.8,-4.23 l 5.67,-28.26001 q 0.45,-2.34 -1.62,-2.97 -0.81,-0.18 -4.05,-0.18 l 0.63,-3.33 q 6.3,0 13.32,-5.49 l -1.89,9.45 q 8.19,-7.11 14.67,-7.11 5.4,0 8.1,3.96 2.79,3.96 1.53,10.26 l -4.86,23.94001 q -0.54,2.88 0.27,3.96 0.81,1.08 4.68,1.26 l -0.63,3.06 -18.36,0 z"
         style="font-style:italic;font-variant:normal;font-weight:normal;font-stretch:normal;font-size:90.00001526px;font-family:'KP KwangMyeong';-inkscape-font-specification:'KP KwangMyeong Italic';stroke:#000000;stroke-width:2.08836389;stroke-miterlimit:4;stroke-dasharray:none;stroke-opacity:1"
         id="path4295"
         inkscape:connector-curvature="0" />
      <path
         d="m 1348.9104,585.60641 q -3.87,0 -5.04,-2.61 -1.44,-2.79 -0.09,-9.54 l 6.21,-30.69001 -5.94,0 0.54,-2.97 q 4.86,-0.9 6.84,-3.51 1.98,-2.7 4.77,-13.05 l 3.51,0 -3.24,16.11 11.97,0 -0.63,3.42 -11.97,0 -6.3,31.14001 q -0.63,3.42 -0.54,4.5 0.27,2.34 2.7,2.34 3.24,0 7.92,-5.58 l 1.89,1.98 q -5.67,8.46 -12.6,8.46 z"
         style="font-style:italic;font-variant:normal;font-weight:normal;font-stretch:normal;font-size:90.00001526px;font-family:'KP KwangMyeong';-inkscape-font-specification:'KP KwangMyeong Italic';stroke:#000000;stroke-width:2.08836389;stroke-miterlimit:4;stroke-dasharray:none;stroke-opacity:1"
         id="path4297"
         inkscape:connector-curvature="0" />
      <path
         d="m 1392.6813,546.5464 q -0.72,0 -2.43,-0.9 -1.71,-0.99 -2.61,-0.99 -0.99,0 -3.24,2.34 -2.16,2.25 -3.6,5.22 -2.43,4.77001 -3.42,9.63001 l -2.79,14.04 q -0.72,3.42 0.99,4.32 1.08,0.54 4.86,0.54 l -0.72,3.69 -19.17,0 0.72,-3.69 q 4.23,0 5.49,-0.9 1.26,-0.99 1.89,-3.96 l 5.67,-28.26001 q 0.81,-3.96 -5.76,-3.15 l 0.63,-3.42 q 3.96,0 7.2,-1.53 1.17,-0.63 6.3,-4.14 l -2.43,11.97 q 3.78,-5.67 7.2,-7.83 2.88,-1.89 6.75,-1.89 2.34,0 3.51,1.35 1.26,1.35 0.81,3.51 -0.81,4.05 -5.85,4.05 z"
         style="font-style:italic;font-variant:normal;font-weight:normal;font-stretch:normal;font-size:90.00001526px;font-family:'KP KwangMyeong';-inkscape-font-specification:'KP KwangMyeong Italic';stroke:#000000;stroke-width:2.08836389;stroke-miterlimit:4;stroke-dasharray:none;stroke-opacity:1"
         id="path4299"
         inkscape:connector-curvature="0" />
      <path
         d="m 1421.2999,585.96641 q -4.32,0 -3.87,-5.76 -7.11,5.76 -13.77,5.76 -5.13,0 -7.92,-3.15 -2.79,-3.24 -1.89,-7.74 1.35,-6.66 6.93,-10.98 6.84,-5.13 21.42,-8.19 l 1.35,-6.66001 q 0.81,-3.78 -0.81,-5.67 -1.53,-1.89 -4.32,-1.89 -3.15,0 -5.58,2.07 -1.26,1.08 -2.61,3.96 -1.71,3.33 -2.52,4.32 -1.8,2.07 -4.32,2.07 -3.33,0 -2.43,-4.14 0.9,-4.77 6.48,-8.37 5.67,-3.69 12.78,-3.69 6.03,0 8.19,2.97 2.25,2.97 0.99,9.54 l -5.22,26.10001 q -0.81,3.69 0.36,3.69 1.17,0 3.96,-2.7 l 1.17,2.52 q -2.61,3.24 -3.6,4.14 -2.25,1.8 -4.77,1.8 z m 0.18,-26.46 q -7.47,1.26 -13.41,4.86 -6.66,4.05 -7.92,9.27 -0.72,3.06 0.72,5.4 1.53,2.25 4.59,2.61 5.85,0 12.87,-6.03 l 3.15,-16.11 z"
         style="font-style:italic;font-variant:normal;font-weight:normal;font-stretch:normal;font-size:90.00001526px;font-family:'KP KwangMyeong';-inkscape-font-specification:'KP KwangMyeong Italic';stroke:#000000;stroke-width:2.08836389;stroke-miterlimit:4;stroke-dasharray:none;stroke-opacity:1"
         id="path4301"
         inkscape:connector-curvature="0" />
      <path
         d="m 1433.8423,584.43641 0.63,-3.24 q 4.14,-0.18 5.49,-1.44 0.99,-0.81 1.53,-3.42 l 9.72,-48.60001 q 0.54,-2.7 -0.99,-3.33 -0.63,-0.27 -4.32,-0.27 l 0.63,-3.33 q 7.29,-0.9 12.96,-5.67 l -12.24,61.20001 q -0.54,2.7 0.27,3.6 0.81,0.9 4.77,1.26 l -0.63,3.24 -17.82,0 z"
         style="font-style:italic;font-variant:normal;font-weight:normal;font-stretch:normal;font-size:90.00001526px;font-family:'KP KwangMyeong';-inkscape-font-specification:'KP KwangMyeong Italic';stroke:#000000;stroke-width:2.08836389;stroke-miterlimit:4;stroke-dasharray:none;stroke-opacity:1"
         id="path4303"
         inkscape:connector-curvature="0" />
      <path
         d="m 1550.9365,534.3964 -10.26,51.57001 -2.61,0 -26.55,-57.33001 -8.73,43.74001 q -1.17,5.58 1.35,7.65 0.9,0.72 4.68,0.72 l -0.72,3.69 -19.08,0 0.72,-3.6 q 4.59,-0.54 6.48,-2.25 1.98,-1.71 2.88,-6.48 l 8.55,-42.39001 q 0.81,-4.14 -1.8,-5.31 -0.09,0 -4.95,-0.63 l 0.72,-3.51 13.23,0 24.57,53.28001 8.01,-39.78001 q 1.08,-5.49 0,-7.47 -1.08,-2.07 -6.39,-2.07 l 0.81,-3.96 19.89,0 -0.72,3.6 q -4.5,0 -6.75,2.34 -2.16,2.34 -3.33,8.19 z"
         style="font-style:italic;font-variant:normal;font-weight:normal;font-stretch:normal;font-size:90.00001526px;font-family:'KP KwangMyeong';-inkscape-font-specification:'KP KwangMyeong Italic';stroke:#000000;stroke-width:2.08836389;stroke-miterlimit:4;stroke-dasharray:none;stroke-opacity:1"
         id="path4305"
         inkscape:connector-curvature="0" />
      <path
         d="m 1571.1556,586.23641 q -8.46,0 -12.06,-7.11 -3.24,-6.39 -1.53,-15.03 2.34,-11.79001 9.27,-19.17001 6.57,-7.02 14.22,-7.02 14.94,0 12.51,22.05001 l -28.98,0 q -0.36,1.62 -0.72,3.33 -1.53,7.74 0.45,12.6 2.43,5.94 9.81,5.94 6.39,0 15.03,-8.55 l 2.07,1.98 q -7.02,6.75 -11.34,9 -3.78,1.98 -8.73,1.98 z m 9.45,-44.64001 q -8.73,0 -14.49,14.67001 l 21.6,0 q 1.62,-14.67001 -7.11,-14.67001 z"
         style="font-style:italic;font-variant:normal;font-weight:normal;font-stretch:normal;font-size:90.00001526px;font-family:'KP KwangMyeong';-inkscape-font-specification:'KP KwangMyeong Italic';stroke:#000000;stroke-width:2.08836389;stroke-miterlimit:4;stroke-dasharray:none;stroke-opacity:1"
         id="path4307"
         inkscape:connector-curvature="0" />
      <path
         d="m 1653.9879,551.9464 -18.09,34.02001 -2.16,0 -4.32,-29.79 -16.02,29.79 -2.43,0 -4.95,-36.63001 q 0,-1.62 -0.81,-4.23 -0.9,-1.53 -5.58,-1.71 l 0.72,-3.33 18.81,0 -0.72,3.33 q -5.4,0 -6.03,3.33 -0.27,1.35 0,3.69 l 3.06,25.29001 13.23,-24.84001 q -0.9,-4.14 -2.07,-5.58 -1.08,-1.53 -4.23,-1.98 l 0.72,-3.24 18,0 -0.72,3.33 q -5.31,0 -5.94,3.42 -0.27,0.99 -0.09,2.07 l 3.6,26.64001 12.96,-24.48001 q 1.17,-2.07 1.44,-3.6 0.81,-4.05 -4.14,-4.05 l 0.72,-3.33 16.02,0 -0.72,3.33 q -3.42,0 -5.94,2.34 -1.98,1.89 -4.32,6.21 z"
         style="font-style:italic;font-variant:normal;font-weight:normal;font-stretch:normal;font-size:90.00001526px;font-family:'KP KwangMyeong';-inkscape-font-specification:'KP KwangMyeong Italic';stroke:#000000;stroke-width:2.08836389;stroke-miterlimit:4;stroke-dasharray:none;stroke-opacity:1"
         id="path4309"
         inkscape:connector-curvature="0" />
      <path
         d="m 1675.107,585.33641 q -2.43,0 -2.16,0.09 -1.26,-0.27 -5.58,-1.89 -1.98,-0.81 -2.34,-0.63 -0.18,0.09 -0.72,0.63 -0.45,0.54 -2.88,2.97 l 0.81,-16.47 2.79,-1.08 q 1.44,13.05 10.71,13.05 3.78,0 6.75,-2.7 2.97,-2.7 3.69,-6.12 0.63,-3.15 -1.71,-5.22 -2.34,-2.07 -12.69,-6.57 -3.96,-1.71 -5.22,-4.05 -1.53,-2.61001 -0.63,-7.29001 0.99,-4.68 5.22,-8.19 4.32,-3.6 9.45,-3.6 3.06,0 5.76,1.17 1.53,0.63 2.52,0.63 1.17,0 2.16,-0.72 1.53,-1.08 2.79,-1.08 l -0.99,14.31 -2.88,0.54 q -1.8,-11.25 -9.81,-11.25 -3.51,0 -6.21,2.25 -2.61,2.16 -3.24,5.04 -0.45,2.61 0.45,4.05 0.81,1.08 3.24,2.34 4.05,1.89001 8.19,3.78001 5.49,2.7 6.75,4.68 2.52,3.87 1.53,8.82 -1.08,5.13 -5.4,8.82 -4.32,3.69 -10.35,3.69 z"
         style="font-style:italic;font-variant:normal;font-weight:normal;font-stretch:normal;font-size:90.00001526px;font-family:'KP KwangMyeong';-inkscape-font-specification:'KP KwangMyeong Italic';stroke:#000000;stroke-width:2.08836389;stroke-miterlimit:4;stroke-dasharray:none;stroke-opacity:1"
         id="path4311"
         inkscape:connector-curvature="0" />
      <path
         d="m 1764.3308,584.43641 0.72,-3.69 q 6.93,0 7.65,-3.42 0.18,-0.9 0,-2.16 l -2.07,-12.78 -25.83,0 -4.32,7.74 q -1.9801,3.6 -2.4301,5.67 -0.9,4.77 5.6701,4.95 l -0.72,3.69 -19.6201,0 0.72,-3.6 q 3.42,-0.54 5.85,-2.34 2.97,-2.34 5.94,-7.56 l 27.8101,-48.69001 5.67,-4.23 9.36,55.17001 q 0.72,4.41 2.88,5.94 1.71,1.35 5.58,1.35 l -0.81,3.96 -22.05,0 z m 0.36,-57.24001 -17.64,31.50001 23.04,0 -5.4,-31.50001 z"
         style="font-style:italic;font-variant:normal;font-weight:normal;font-stretch:normal;font-size:90.00001526px;font-family:'KP KwangMyeong';-inkscape-font-specification:'KP KwangMyeong Italic';stroke:#000000;stroke-width:2.08836389;stroke-miterlimit:4;stroke-dasharray:none;stroke-opacity:1"
         id="path4313"
         inkscape:connector-curvature="0" />
      <path
         d="m 1832.8798,544.4764 q -0.54,-1.35 -1.26,-1.35 -0.63,0 -1.89,1.17 l -0.18,0.18 q 2.34,3.96 1.26,9.36 -2.88,14.40001 -19.44,14.40001 -5.13,0 -8.91,-2.16 -3.6,2.61 -3.87,4.14 -0.27,1.08 0.99,1.8 1.8,1.62 19.62,2.34 12.33,0.45 10.44,10.17 -1.08,5.22 -8.46,9.27 -7.38,4.14 -16.47,4.14 -8.1,0 -12.96,-3.06 -5.13,-3.24 -4.05,-8.46 0.99,-5.22 7.11,-9.45 -2.79,-1.89 -2.25,-4.77 0.72,-3.6 6.84,-8.37 -3.42,-3.87 -1.98,-10.71001 1.26,-6.39 6.75,-10.62 5.49,-4.23 12.69,-4.23 6.48,0 10.89,3.69 1.44,-1.8 3.78,-3.06 2.43,-1.26 4.23,-1.26 2.25,0 3.51,1.53 1.26,1.53 0.81,3.78 -0.72,3.6 -4.05,3.6 -2.52,0 -3.15,-2.07 z m -17.28,-2.61 q -9.72,0.81 -11.88,11.7 -0.99,4.77001 1.35,7.74001 2.43,2.97 7.29,2.97 4.86,0 8.1,-2.97 3.06,-2.79 3.96,-7.47001 2.25,-11.16 -8.82,-11.97 z m 1.44,38.61001 q -14.22,-0.63 -18,-1.71 -3.96,2.07 -4.95,6.84 -0.54,2.97 3.06,5.76 3.6,2.88 9.18,2.88 6.39,0 11.61,-2.43 5.49,-2.61 6.3,-6.48 0.9,-4.41 -7.2,-4.86 z"
         style="font-style:italic;font-variant:normal;font-weight:normal;font-stretch:normal;font-size:90.00001526px;font-family:'KP KwangMyeong';-inkscape-font-specification:'KP KwangMyeong Italic';stroke:#000000;stroke-width:2.08836389;stroke-miterlimit:4;stroke-dasharray:none;stroke-opacity:1"
         id="path4315"
         inkscape:connector-curvature="0" />
      <path
         d="m 1852.2299,586.23641 q -8.46,0 -12.06,-7.11 -3.24,-6.39 -1.53,-15.03 2.34,-11.79001 9.27,-19.17001 6.57,-7.02 14.22,-7.02 14.94,0 12.51,22.05001 l -28.98,0 q -0.36,1.62 -0.72,3.33 -1.53,7.74 0.45,12.6 2.43,5.94 9.81,5.94 6.39,0 15.03,-8.55 l 2.07,1.98 q -7.02,6.75 -11.34,9 -3.78,1.98 -8.73,1.98 z m 9.45,-44.64001 q -8.73,0 -14.49,14.67001 l 21.6,0 q 1.62,-14.67001 -7.11,-14.67001 z"
         style="font-style:italic;font-variant:normal;font-weight:normal;font-stretch:normal;font-size:90.00001526px;font-family:'KP KwangMyeong';-inkscape-font-specification:'KP KwangMyeong Italic';stroke:#000000;stroke-width:2.08836389;stroke-miterlimit:4;stroke-dasharray:none;stroke-opacity:1"
         id="path4317"
         inkscape:connector-curvature="0" />
      <path
         d="m 1898.4322,584.43641 0.63,-3.06 q 4.5,-0.18 5.76,-1.17 1.08,-0.72 1.71,-3.69 l 4.5,-22.50001 q 0.99,-5.13 -0.72,-8.01 -1.62,-2.97 -5.76,-2.97 -5.31,0 -12.51,7.02 l -5.13,25.83001 q -0.72,3.78 0.09,4.41 0.63,0.45 5.58,0.45 l -0.72,3.69 -18.99,0 0.72,-3.69 q 4.5,0 5.58,-0.63 1.08,-0.72 1.8,-4.23 l 5.67,-28.26001 q 0.45,-2.34 -1.62,-2.97 -0.81,-0.18 -4.05,-0.18 l 0.63,-3.33 q 6.3,0 13.32,-5.49 l -1.89,9.45 q 8.19,-7.11 14.67,-7.11 5.4,0 8.1,3.96 2.79,3.96 1.53,10.26 l -4.86,23.94001 q -0.54,2.88 0.27,3.96 0.81,1.08 4.68,1.26 l -0.63,3.06 -18.36,0 z"
         style="font-style:italic;font-variant:normal;font-weight:normal;font-stretch:normal;font-size:90.00001526px;font-family:'KP KwangMyeong';-inkscape-font-specification:'KP KwangMyeong Italic';stroke:#000000;stroke-width:2.08836389;stroke-miterlimit:4;stroke-dasharray:none;stroke-opacity:1"
         id="path4319"
         inkscape:connector-curvature="0" />
      <path
         d="m 1936.8622,585.60641 q -7.47,0 -10.89,-6.57 -3.33,-6.57 -1.44,-16.2 2.25,-11.16001 9.09,-18.18001 6.93,-7.02 15.57,-7.02 5.13,0 8.37,2.7 3.42,2.97 2.61,7.29 -0.45,1.98 -1.89,3.33 -1.44,1.35 -3.24,1.35 -2.07,0 -2.88,-1.62 -0.81,-1.62 -0.18,-3.51 0.36,-1.08 0.54,-1.71 0.72,-3.87 -4.68,-3.87 -5.67,0 -10.53,6.03 -4.77,5.94 -6.39,14.04001 -1.71,8.55 0.72,13.77 2.52,5.22 8.1,5.22 7.11,0 15.03,-9.36 l 2.16,1.44 q -3.96,6.12 -9.45,9.54 -5.49,3.33 -10.62,3.33 z"
         style="font-style:italic;font-variant:normal;font-weight:normal;font-stretch:normal;font-size:90.00001526px;font-family:'KP KwangMyeong';-inkscape-font-specification:'KP KwangMyeong Italic';stroke:#000000;stroke-width:2.08836389;stroke-miterlimit:4;stroke-dasharray:none;stroke-opacity:1"
         id="path4321"
         inkscape:connector-curvature="0" />
      <path
         d="m 1997.4645,555.0064 -15.21,27.81001 q -5.04,9.18 -10.35,12.69 -3.78,2.43 -8.64,2.43 -6.03,0 -5.58,-4.95 0.27,-2.07 1.8,-3.24 1.53,-1.08 3.15,-1.08 2.7,0 5.58,2.61 0.45,0.36 1.08,0.36 4.05,0 8.91,-8.46 l -6.75,-36.45001 q -0.63,-3.15 -5.76,-3.69 l 0.63,-3.33 18.9,0 -0.72,3.69 q -5.67,0 -6.21,2.88 -0.27,1.44 0.45,5.67 l 4.14,23.49001 11.88,-21.78001 q 2.7,-4.68 2.79,-6.57 0.27,-3.33 -5.22,-3.69 l 0.72,-3.69 17.91,0 -0.63,3.24 q -4.77,1.35 -7.29,3.87 -2.16,2.07 -5.58,8.19 z"
         style="font-style:italic;font-variant:normal;font-weight:normal;font-stretch:normal;font-size:90.00001526px;font-family:'KP KwangMyeong';-inkscape-font-specification:'KP KwangMyeong Italic';stroke:#000000;stroke-width:2.08836389;stroke-miterlimit:4;stroke-dasharray:none;stroke-opacity:1"
         id="path4323"
         inkscape:connector-curvature="0" />
    </g>
  </g>
  <g
     inkscape:groupmode="layer"
     id="layer2"
     inkscape:label="2. réteg"
     style="display:inline">
    <g
       id="g4267"
       transform="translate(-246.72091,747.42517)">
      <path
         sodipodi:nodetypes="cssssssscsssssssscsssc"
         inkscape:connector-curvature="0"
         id="path4249"
         d="m 296.98486,-56.280216 c 0,-82.922234 55.13296,-167.488914 138.61344,-207.314344 48.78755,-23.27472 148.30003,-28.60772 161.90696,-16.43445 3.89997,3.48907 4.49536,13.80078 -5.24802,19.03603 -14.14746,7.60163 -43.37493,10.09832 -59.98583,12.08868 -6.36514,0.76269 -27.8668,-3.68595 -27.77885,7.62136 0.0573,7.37035 -10.30804,18.52564 -16.79362,36.6546 -2.54867,7.12421 -16.44143,-3.27317 -19.34998,4.98535 -6.85253,19.45698 3.12648,-32.96254 3.12648,-32.96254 0,0 -54.72519,-12.51048 -59.18923,19.27162 -2.35627,16.77574 11.39735,14.49853 -3.98361,33.28907 -13.27371,16.21617 -61.16994,29.08929 -59.33388,49.5671 0.84234,9.39468 -1.75678,11.0602 3.33125,20.76226 4.01318,7.65249 29.4332,-29.92361 35.29819,-22.1004 3.9921,5.32498 -2.25609,18.68211 1.41264,25.5479 3.42206,6.404157 -40.78692,26.164378 -44.09766,33.055744 0,0 -11.20506,33.642956 0.0468,41.768552 12.3345,8.907442 47.81504,14.623568 41.1898,35.5358959 -14.58824,12.9294121 -45.44996,-13.1998907 -68.16503,-19.7291599 -8.30948,-2.388497 -1.52182,37.831711 -6.82475,31.375005 -4.40554,-5.364059 -11.48585,-20.4907495 -11.39145,-33.136865 0.11114,-14.886669 -2.2749,-32.555635 -2.78365,-38.881408 z"
         style="display:inline;opacity:1;fill:#afb3b2;fill-opacity:1;stroke:none;stroke-width:3;stroke-linecap:round;stroke-linejoin:round;stroke-miterlimit:4;stroke-dasharray:none;stroke-dashoffset:0;stroke-opacity:1"
         transform="translate(0,-343.70083)" />
      <path
         sodipodi:nodetypes="cssscssc"
         inkscape:connector-curvature="0"
         id="path4258"
         d="m 443.45697,94.737584 c 0,5.021022 -19.68976,16.162446 -27.77919,16.162446 -1.8057,0 -25.70483,-11.712881 -38.10654,-13.037036 C 367.12965,96.748124 355.52934,84.303168 347.14328,79.45272 320.86815,64.255356 321.2285,57.288081 321.2285,54.331475 c 2.38131,-2.742049 -4.04264,-13.922662 2.07026,-12.311216 13.71225,3.614738 45.70734,26.796463 63.81523,36.116683 26.55187,13.666382 56.34298,16.600642 56.34298,16.600642 z"
         style="display:inline;opacity:1;fill:#afb3b2;fill-opacity:1;stroke:none;stroke-width:3;stroke-linecap:round;stroke-linejoin:round;stroke-miterlimit:4;stroke-dasharray:none;stroke-dashoffset:0;stroke-opacity:1"
         transform="translate(0,-343.70083)" />
      <path
         sodipodi:nodetypes="cccc"
         inkscape:connector-curvature="0"
         id="path4260"
         d="m 467.70064,159.38735 c 0.94431,12.53268 -37.64493,10.44618 -45.88928,5.75923 -19.44565,-11.86901 -41.99399,-37.96383 -41.99399,-41.11458 25.26671,-25.082834 87.88327,35.35535 87.88327,35.35535 z"
         style="display:inline;opacity:1;fill:#afb3b2;fill-opacity:1;stroke:none;stroke-width:3;stroke-linecap:round;stroke-linejoin:round;stroke-miterlimit:4;stroke-dasharray:none;stroke-dashoffset:0;stroke-opacity:1"
         transform="translate(0,-343.70083)" />
      <g
         transform="translate(-170.67732,-279.15044)"
         id="g4182">
        <g
           id="g4177"
           transform="translate(170.7158,-62.629469)">
          <path
             sodipodi:nodetypes="csccccccccccccccccccccccccccccccccccccccccccccccccc"
             inkscape:connector-curvature="0"
             id="rect4168"
             d="m 477.80215,-28.501015 c -10.23675,-2.274007 -15.91063,-15.573863 -23.07862,-10.652321 0,0 -14.14098,10.242952 -23.30958,0.920889 l -6.00624,-13.564236 3.91586,-10.809152 6.68005,-18.411135 4.93858,-12.926609 -2.91371,-20.079461 -18.62387,-4.66742 -12.38999,-16 3.85379,-16.25128 32.59751,-21.04194 22.50963,-8.06161 12.23022,-16.01954 28.37883,-25.06851 15.35057,16.93561 24.676,-3.29236 -1.01031,-24.9671 30.2251,-1.23082 8.29903,-21.47494 12.49561,-0.87988 4.38752,-24.02332 12.17466,-0.77441 22.56237,20.44993 -1.94912,14.53039 -27.99666,32.026 0.91382,39.17381 -17.91952,11.76775 -30.20082,27.27915 -32.97852,10.31513 1.62011,21.46831 31.37486,26.1877 14.14717,28.938321 20.90046,24.808213 2.33305,11.557263 6.071,54.579178 -0.18622,35.950923 -32.07555,36.567932 -36.1924,4.88217 -23.16173,4.55638 -11.43675,15.2556 -18.98684,-1.54139 -21.12788,-12.93312 -2.02063,-28.014012 18.69207,-14.915125 8.5957,-28.73381 -9.54847,-26.497373 -8.35396,-12.768328 -0.57802,-17.2976503 12.52515,-2.2712803 z"
             style="opacity:1;fill:#ffffff;fill-opacity:1;stroke:none;stroke-width:3.00000048;stroke-linecap:round;stroke-linejoin:round;stroke-miterlimit:4;stroke-dasharray:none;stroke-dashoffset:0;stroke-opacity:1" />
          <path
             sodipodi:nodetypes="csssc"
             inkscape:connector-curvature="0"
             id="path4171"
             d="m 507.09657,173.52948 c 0,6.13681 -14.88,12.12183 -25.7589,12.12183 -10.87889,0 -13.63706,-5.98502 -13.63706,-12.12183 0,-6.13681 14.88,-16.16245 25.7589,-16.16244 10.87889,-1e-5 13.63706,10.02563 13.63706,16.16244"
             style="opacity:1;fill:#ffffff;fill-opacity:1;stroke:none;stroke-width:3.00000048;stroke-linecap:round;stroke-linejoin:round;stroke-miterlimit:4;stroke-dasharray:none;stroke-dashoffset:0;stroke-opacity:1" />
          <path
             sodipodi:nodetypes="sssss"
             inkscape:connector-curvature="0"
             id="path4174"
             d="m 657.60933,-22.44013 c 0,3.347351 -7.32694,6.060915 -12.62691,6.060915 -5.29997,0 -6.56599,-2.713564 -6.56599,-6.060915 0,-3.347352 4.29648,-6.060916 9.59645,-6.060916 5.29997,0 9.59645,2.713564 9.59645,6.060916 z"
             style="opacity:1;fill:#ffffff;fill-opacity:1;stroke:none;stroke-width:3.00000048;stroke-linecap:round;stroke-linejoin:round;stroke-miterlimit:4;stroke-dasharray:none;stroke-dashoffset:0;stroke-opacity:1" />
        </g>
      </g>
      <path
         sodipodi:nodetypes="ssssssssssssss"
         inkscape:connector-curvature="0"
         id="path4215"
         d="m 772.99059,-395.69633 c 0,129.15198 -140.52867,239.16955 -193.44423,229.80974 -14.01888,-2.47969 130.99664,-52.68753 151.31055,-130.49706 3.34289,-12.80443 -21.77095,3.53007 -23.68693,-11.6594 -1.066,-8.45094 1.91256,-24.6242 3.33701,-39.65727 0.31449,-3.31902 1.04411,-21.62053 -6.62706,-18.62947 -18.97278,7.39767 -57.88616,-14.06546 -60.18883,-37.44777 -1.01675,-10.32453 41.557,18.82189 67.52322,10.13707 19.25061,-6.43868 15.01849,-41.97902 17.31249,-54.97344 3.74197,-21.19654 -10.00992,-51.92158 -15.43285,-66.29204 -13.59012,-36.01305 -33.60407,-35.80285 -49.3452,-48.9285 -4.98284,-4.15491 -14.81808,8.91352 -19.16349,5.01252 -16.36234,-14.68894 -21.44878,-43.66997 -12.51096,-44.46076 22.08177,-1.95371 140.91628,78.4344 140.91628,207.58638 z"
         style="opacity:1;fill:#afb3b2;fill-opacity:1;stroke:none;stroke-width:3;stroke-linecap:round;stroke-linejoin:round;stroke-miterlimit:4;stroke-dasharray:none;stroke-dashoffset:0;stroke-opacity:1" />
    </g>
  </g>
</svg>
